<svg xmlns="http://www.w3.org/2000/svg" viewBox="0 0 512 512"><defs><linearGradient id="a" x1="0" x2="1" y1="0" y2="0" gradientTransform="translate(-2.37 256) scale(516.74074)" gradientUnits="userSpaceOnUse" spreadMethod="pad"><stop offset="0" stop-color="#7abbb3"/><stop offset=".85" stop-color="#2c5860"/><stop offset="1" stop-color="#2c5860"/></linearGradient></defs><path fill="url(#a)" d="M0 512h512V0H0Z"/><path fill="#fef7e4" d="M389.931 342.634a1.644 1.644 0 0 0-2.142-1.406c-8.682 2.795-23.689 6.84-42.67 8.703-34.229 3.367-66.61-1.526-96.25-14.53-29.643-13.005-55.207-33.534-76.01-61.022-11.565-15.289-18.822-29.106-22.667-37.397a1.645 1.645 0 0 0-2.484-.623l-28.43 21.47a1.642 1.642 0 0 0-.53 1.938c5.299 12.826 37.022 82.621 112.56 115.761 75.537 33.14 148.048 9.074 161 4.255a1.641 1.641 0 0 0 1.06-1.698z"/><path fill="#fef7e4" d="m382.874 273.581-3.521-36.115a1.644 1.644 0 0 0-2.561-1.2l-17.53 11.909a1.645 1.645 0 0 1-2.56-1.201l-12.295-126.222c-.125-1.279-1.603-1.927-2.628-1.152l-101.202 76.428a1.644 1.644 0 0 1-2.618-1.071l-3.108-20.964a1.644 1.644 0 0 0-2.617-1.07l-28.959 21.864-36.084 27.273a1.64 1.64 0 0 0-.529 1.938c4.52 10.894 30.085 66.36 90.365 92.807 60.262 26.438 118.13 7.576 129.152 3.501a1.641 1.641 0 0 0 1.063-1.7z"/></svg>