<svg xmlns="http://www.w3.org/2000/svg" viewBox="0 0 512 512"><defs><linearGradient id="a" x1="0" x2="1" y1="0" y2="0" gradientTransform="rotate(23.688 -686.208 117.307) scale(558.54788)" gradientUnits="userSpaceOnUse" spreadMethod="pad"><stop offset="0" stop-color="#7abbb3"/><stop offset=".85" stop-color="#2c5860"/><stop offset="1" stop-color="#2c5860"/></linearGradient><linearGradient id="b" x1="0" x2="1" y1="0" y2="0" gradientTransform="scale(448.5799) rotate(23.688 -.358 .812)" gradientUnits="userSpaceOnUse" spreadMethod="pad"><stop offset="0" stop-color="#7abbb3"/><stop offset=".85" stop-color="#2c5860"/><stop offset="1" stop-color="#2c5860"/></linearGradient></defs><path fill="url(#a)" d="M54.2 219.4 1.22 259.41a3.057 3.057 0 0 0-.988 3.609c9.874 23.902 68.991 153.965 209.755 215.721 140.764 61.757 275.887 16.91 300.023 7.93a3.057 3.057 0 0 0 1.976-3.166l-6.404-66.063a3.063 3.063 0 0 0-3.994-2.619c-16.178 5.209-44.143 12.747-79.513 16.22-63.786 6.272-124.127-2.846-179.365-27.079-55.236-24.234-102.876-62.49-141.645-113.714-21.548-28.49-35.072-54.24-42.238-69.689a3.065 3.065 0 0 0-2.787-1.78 3.04 3.04 0 0 0-1.84.62"/><path fill="url(#b)" d="M415.85 1.818 227.26 144.241c-1.856 1.403-4.537.306-4.879-1.996l-5.79-39.064c-.342-2.302-3.02-3.398-4.878-1.997l-53.965 40.747-67.242 50.822a3.057 3.057 0 0 0-.986 3.612c8.422 20.3 56.062 123.662 168.394 172.944 112.298 49.268 220.135 14.119 240.675 6.525a3.057 3.057 0 0 0 1.98-3.168l-8.14-83.904-6.561-67.3c-.226-2.315-2.848-3.543-4.773-2.237l-32.666 22.193c-1.924 1.307-4.546.078-4.772-2.238L420.747 3.967c-.165-1.676-1.575-2.772-3.063-2.772a3.02 3.02 0 0 0-1.835.623"/></svg>