<svg xmlns="http://www.w3.org/2000/svg" viewBox="0 0 512 512"><defs><linearGradient id="a" x1="0" x2="1" y1="0" y2="0" gradientTransform="scale(299.7312) rotate(23.688 -1.974 1.351)" gradientUnits="userSpaceOnUse" spreadMethod="pad"><stop offset="0" stop-color="#7abbb3"/><stop offset=".85" stop-color="#2c5860"/><stop offset="1" stop-color="#2c5860"/></linearGradient><linearGradient id="b" x1="0" x2="1" y1="0" y2="0" gradientTransform="rotate(23.688 -309.667 537.68) scale(240.71954)" gradientUnits="userSpaceOnUse" spreadMethod="pad"><stop offset="0" stop-color="#7abbb3"/><stop offset=".85" stop-color="#2c5860"/><stop offset="1" stop-color="#2c5860"/></linearGradient></defs><path fill="#fef7e4" d="M0 0h512v512H0Z"/><path fill="url(#a)" d="m147.708 236.36-28.43 21.47a1.64 1.64 0 0 0-.53 1.937c5.299 12.826 37.022 82.621 112.56 115.761 75.537 33.14 148.048 9.075 161 4.256a1.64 1.64 0 0 0 1.06-1.7l-3.436-35.45a1.644 1.644 0 0 0-2.143-1.406c-8.682 2.795-23.689 6.84-42.67 8.704-34.228 3.366-66.609-1.527-96.251-14.531-29.641-13.005-55.206-33.534-76.01-61.022-11.564-15.289-18.82-29.106-22.666-37.397a1.645 1.645 0 0 0-1.496-.955c-.342 0-.688.106-.988.333"/><path fill="url(#b)" d="m341.779 119.6-101.202 76.427a1.645 1.645 0 0 1-2.618-1.07l-3.107-20.964a1.645 1.645 0 0 0-2.618-1.071l-28.959 21.866-36.084 27.272a1.64 1.64 0 0 0-.529 1.938c4.52 10.894 30.084 66.36 90.365 92.807 60.262 26.438 118.13 7.576 129.152 3.5a1.64 1.64 0 0 0 1.063-1.699l-4.368-45.025-3.521-36.114a1.645 1.645 0 0 0-2.561-1.201l-17.53 11.909a1.645 1.645 0 0 1-2.56-1.2l-12.295-126.223a1.645 1.645 0 0 0-1.643-1.487c-.337 0-.681.104-.985.334"/></svg>