<svg xmlns="http://www.w3.org/2000/svg" viewBox="0 0 512 512"><defs><linearGradient id="a" x1="0" x2="1" y1="0" y2="0" gradientTransform="translate(-2.372 256) scale(516.74074)" gradientUnits="userSpaceOnUse" spreadMethod="pad"><stop offset="0" stop-color="#7abbb3"/><stop offset=".85" stop-color="#2c5860"/><stop offset="1" stop-color="#2c5860"/></linearGradient></defs><path fill="url(#a)" d="M-.001 512h512V0h-512z"/><path fill="#fef7e4" d="M177.986 338.43v5.333h-7.241v21.995h-6.657v-21.995h-7.24v-5.334zM202.783 344.035v21.723h-6.657v-2.96c-.675.961-1.59 1.733-2.744 2.317-1.156.584-2.433.876-3.835.876-1.661 0-3.128-.37-4.4-1.11-1.271-.739-2.257-1.81-2.958-3.21-.7-1.402-1.05-3.05-1.05-4.945v-12.69h6.617v11.795c0 1.453.376 2.582 1.129 3.386.753.805 1.765 1.207 3.037 1.207 1.297 0 2.322-.402 3.075-1.207.753-.804 1.13-1.933 1.13-3.386v-11.796zM229.975 359.626c.61-.506.915-1.239.915-2.199 0-.96-.319-1.713-.954-2.258-.636-.545-1.513-.818-2.628-.818h-4.827v6.035h4.905c1.115 0 1.978-.253 2.589-.76m-7.494-10.14h4.36c1.09 0 1.927-.24 2.51-.72.585-.481.877-1.188.877-2.123 0-.934-.292-1.648-.876-2.14-.584-.493-1.421-.74-2.511-.74h-4.36zm13.703 4.612c.96 1.233 1.44 2.642 1.44 4.224 0 2.284-.798 4.095-2.394 5.43-1.596 1.337-3.822 2.005-6.676 2.005h-12.73V338.43h12.301c2.777 0 4.95.637 6.521 1.908 1.57 1.272 2.355 2.997 2.355 5.177 0 1.61-.422 2.946-1.265 4.01-.843 1.065-1.966 1.804-3.367 2.22 1.583.337 2.855 1.122 3.815 2.354M251.055 344.833c1.168-.687 2.465-1.032 3.893-1.032v7.047h-1.83c-1.661 0-2.907.357-3.737 1.07-.831.715-1.246 1.966-1.246 3.757v10.083h-6.657v-21.723h6.657v3.62c.779-1.193 1.751-2.134 2.92-2.822M273.4 338.624l-9.382 3.932v-4.594l9.382-4.516zm6.19 5.411v21.723h-6.657v-2.96c-.676.961-1.59 1.733-2.745 2.317-1.155.584-2.433.876-3.834.876-1.662 0-3.128-.37-4.4-1.109-1.271-.74-2.257-1.81-2.958-3.212-.7-1.401-1.051-3.05-1.051-4.944v-12.691h6.618v11.795c0 1.454.376 2.583 1.129 3.387.752.805 1.764 1.207 3.036 1.207 1.298 0 2.323-.402 3.076-1.207.752-.804 1.129-1.933 1.129-3.387v-11.795zM284.825 340.745c-.74-.687-1.109-1.537-1.109-2.55 0-1.037.37-1.9 1.11-2.588.739-.687 1.693-1.032 2.86-1.032 1.142 0 2.083.345 2.823 1.032.74.688 1.11 1.551 1.11 2.588 0 1.013-.37 1.863-1.11 2.55-.74.688-1.68 1.032-2.822 1.032-1.168 0-2.122-.344-2.862-1.032m6.21 27.815c0 2.673-.676 4.6-2.025 5.781-1.35 1.181-3.23 1.772-5.644 1.772h-2.609v-5.645h1.596c.727 0 1.246-.143 1.557-.428.312-.286.468-.753.468-1.401v-24.604h6.657zM317.272 344.035v21.723h-6.656v-2.96c-.676.961-1.59 1.733-2.745 2.317-1.155.584-2.433.876-3.834.876-1.662 0-3.128-.37-4.4-1.11-1.272-.739-2.257-1.81-2.958-3.21-.701-1.402-1.051-3.05-1.051-4.945v-12.69h6.618v11.795c0 1.453.376 2.582 1.129 3.386.752.805 1.765 1.207 3.036 1.207 1.298 0 2.322-.402 3.076-1.207.752-.804 1.129-1.933 1.129-3.386v-11.796zM328.717 365.758h-6.657V336.95h6.657zM347.112 350.964c-.922-.96-2.044-1.44-3.368-1.44-1.323 0-2.446.474-3.367 1.421-.922.948-1.382 2.252-1.382 3.913 0 1.66.46 2.978 1.382 3.95.92.974 2.044 1.46 3.367 1.46 1.324 0 2.446-.48 3.368-1.44.92-.96 1.382-2.27 1.382-3.932 0-1.66-.461-2.971-1.382-3.932m-13.626-1.985c.844-1.687 1.992-2.984 3.446-3.893 1.453-.908 3.075-1.363 4.866-1.363 1.531 0 2.874.312 4.029.935 1.154.623 2.044 1.44 2.667 2.453v-3.076h6.656v21.722h-6.656v-3.075c-.65 1.012-1.552 1.83-2.706 2.452-1.155.623-2.498.935-4.03.935-1.764 0-3.373-.46-4.826-1.382-1.454-.921-2.602-2.231-3.446-3.932-.843-1.7-1.265-3.666-1.265-5.897 0-2.232.422-4.192 1.265-5.879M166.312 390.679c-.373-.697-.884-1.228-1.53-1.594-.648-.365-1.38-.548-2.195-.548-.788 0-1.51.19-2.163.57a4.066 4.066 0 0 0-1.551 1.625c-.38.703-.57 1.519-.57 2.447 0 .93.19 1.745.57 2.449.38.703.897 1.245 1.55 1.624.655.38 1.376.57 2.164.57.816 0 1.547-.186 2.195-.56.646-.371 1.157-.913 1.53-1.624.372-.71.56-1.537.56-2.48 0-.956-.188-1.783-.56-2.48m-6.268-2.658c.795-.514 1.741-.77 2.838-.77 1.041 0 1.98.242 2.818.727.836.486 1.49 1.176 1.962 2.068.472.894.707 1.932.707 3.114 0 1.181-.235 2.223-.707 3.123-.471.9-1.126 1.597-1.962 2.089-.838.493-1.777.738-2.818.738-1.083 0-2.025-.256-2.828-.77-.801-.513-1.385-1.157-1.75-1.93v7.976h-1.457v-16.967h1.456v2.533c.366-.774.946-1.417 1.741-1.931M171.82 398.191c-.838-.612-1.306-1.445-1.404-2.5h1.52c.07.647.375 1.171.917 1.572s1.27.601 2.184.601c.803 0 1.432-.19 1.89-.57.457-.38.685-.85.685-1.413 0-.394-.126-.718-.38-.971a2.694 2.694 0 0 0-.96-.601 14.96 14.96 0 0 0-1.572-.475c-.858-.225-1.555-.45-2.09-.675a3.557 3.557 0 0 1-1.36-1.003c-.374-.443-.56-1.037-.56-1.784 0-.562.17-1.082.507-1.56.337-.479.816-.859 1.435-1.14.619-.282 1.322-.423 2.11-.423 1.238 0 2.237.314 2.997.94.76.626 1.167 1.487 1.224 2.585h-1.477c-.043-.676-.306-1.22-.792-1.636-.485-.415-1.15-.622-1.994-.622-.746 0-1.35.176-1.815.527-.464.352-.696.788-.696 1.309 0 .45.137.82.411 1.108.275.288.616.513 1.024.675.407.162.956.341 1.646.538.83.225 1.49.443 1.983.654.493.211.915.52 1.266.929.352.408.535.95.55 1.625 0 .619-.17 1.17-.507 1.656-.338.486-.81.87-1.414 1.15-.605.281-1.301.422-2.09.422-1.322 0-2.402-.306-3.239-.918M183.331 398.94h-1.477v-11.522h1.477zm-1.498-14.012a1.061 1.061 0 0 1-.317-.78c0-.31.106-.567.317-.77.21-.205.464-.307.76-.307.295 0 .548.102.76.306.21.204.316.46.316.77s-.106.57-.317.781a1.036 1.036 0 0 1-.76.316c-.295 0-.548-.105-.76-.316M186.728 390.046a5.108 5.108 0 0 1 1.984-2.068c.844-.486 1.808-.729 2.891-.729 1.421 0 2.592.352 3.514 1.055.921.704 1.516 1.661 1.783 2.87h-1.583c-.197-.83-.622-1.48-1.276-1.951-.655-.472-1.467-.707-2.438-.707-.774 0-1.47.176-2.089.527-.619.352-1.108.876-1.467 1.572-.358.697-.538 1.552-.538 2.564 0 1.013.18 1.872.538 2.575.36.704.848 1.231 1.467 1.583.619.352 1.315.527 2.09.527.97 0 1.782-.235 2.437-.707.654-.471 1.08-1.129 1.276-1.972h1.583c-.267 1.18-.865 2.13-1.794 2.848-.928.718-2.096 1.076-3.503 1.076-1.083 0-2.047-.242-2.891-.728a5.108 5.108 0 0 1-1.983-2.068c-.479-.893-.718-1.938-.718-3.134 0-1.195.24-2.24.718-3.133M206.776 397.305c.648-.345 1.172-.865 1.572-1.562.401-.696.602-1.55.602-2.564 0-1.012-.197-1.867-.59-2.564-.395-.696-.916-1.216-1.563-1.561a4.418 4.418 0 0 0-2.11-.517c-.76 0-1.463.172-2.11.517-.648.345-1.164.865-1.551 1.561-.387.697-.58 1.552-.58 2.564 0 1.013.193 1.868.58 2.564.387.697.9 1.217 1.54 1.562s1.34.517 2.1.517 1.463-.172 2.11-.517m-5.033 1.076a5.26 5.26 0 0 1-2.047-2.068c-.5-.893-.749-1.938-.749-3.134 0-1.195.253-2.24.76-3.133a5.313 5.313 0 0 1 2.068-2.068c.872-.486 1.85-.729 2.933-.729 1.083 0 2.065.243 2.944.729a5.225 5.225 0 0 1 2.068 2.068c.5.893.75 1.938.75 3.133 0 1.182-.254 2.224-.76 3.124a5.256 5.256 0 0 1-2.09 2.078c-.886.486-1.87.728-2.954.728-1.083 0-2.058-.242-2.923-.728M215.09 388.663v7.154c0 .704.135 1.19.402 1.457.267.267.739.4 1.414.4h1.35v1.266h-1.582c-1.042 0-1.815-.242-2.322-.727-.506-.486-.76-1.284-.76-2.396v-7.154h-1.603v-1.245h1.603v-2.89h1.499v2.89h3.165v1.245zM229.093 390.352a3.497 3.497 0 0 0-1.467-1.372 4.471 4.471 0 0 0-2.026-.464c-1.097 0-2.033.351-2.807 1.055-.773.703-1.203 1.695-1.287 2.975h8.104c.014-.857-.158-1.59-.517-2.194m1.973 3.397h-9.56c.042.873.253 1.618.633 2.237.38.62.88 1.087 1.499 1.404.619.316 1.294.474 2.025.474.957 0 1.762-.232 2.417-.696a3.268 3.268 0 0 0 1.298-1.878h1.561a4.88 4.88 0 0 1-1.804 2.753c-.922.711-2.079 1.066-3.472 1.066-1.083 0-2.054-.242-2.912-.727a5.142 5.142 0 0 1-2.015-2.069c-.486-.893-.728-1.937-.728-3.134 0-1.195.239-2.243.717-3.144a4.981 4.981 0 0 1 2.005-2.068c.858-.478 1.836-.718 2.933-.718 1.098 0 2.058.24 2.881.718a4.96 4.96 0 0 1 1.9 1.93c.443.81.664 1.707.664 2.691 0 .507-.014.894-.042 1.161M236.774 387.798c.668-.393 1.488-.59 2.459-.59v1.54h-.401c-1.07 0-1.928.288-2.575.865-.647.577-.97 1.54-.97 2.891v6.437h-1.478v-11.523h1.477v2.047a3.607 3.607 0 0 1 1.488-1.667M250.27 390.732a4.064 4.064 0 0 0-1.552-1.626 4.232 4.232 0 0 0-2.163-.57c-.816 0-1.547.184-2.194.55-.647.366-1.157.897-1.53 1.593s-.56 1.523-.56 2.48c0 .942.187 1.769.56 2.48.373.71.883 1.251 1.53 1.624.647.373 1.378.559 2.194.559.788 0 1.51-.19 2.163-.57a4.067 4.067 0 0 0 1.552-1.625c.38-.703.57-1.519.57-2.448 0-.928-.19-1.744-.57-2.447m-8.79-.686c.472-.894 1.126-1.583 1.963-2.069.837-.485 1.783-.727 2.838-.727 1.097 0 2.043.253 2.838.759.795.507 1.369 1.154 1.72 1.942v-2.533h1.478v11.523h-1.478v-2.554c-.366.788-.946 1.439-1.74 1.952-.795.514-1.742.77-2.84.77-1.04 0-1.98-.246-2.816-.738-.837-.492-1.491-1.189-1.963-2.09-.471-.9-.707-1.94-.707-3.123 0-1.181.236-2.219.707-3.112M265.158 390.679c-.374-.697-.884-1.228-1.53-1.594-.648-.365-1.38-.548-2.195-.548-.788 0-1.51.19-2.163.57a4.064 4.064 0 0 0-1.551 1.625c-.38.703-.57 1.519-.57 2.447 0 .93.19 1.745.57 2.449.38.703.897 1.245 1.551 1.624.654.38 1.375.57 2.163.57.816 0 1.547-.186 2.195-.56.646-.371 1.157-.913 1.53-1.624.372-.71.559-1.537.559-2.48 0-.956-.187-1.783-.56-2.48m-6.267-2.658c.794-.514 1.741-.77 2.838-.77 1.041 0 1.98.242 2.818.727.836.486 1.49 1.176 1.962 2.068.471.894.707 1.932.707 3.114 0 1.181-.236 2.223-.707 3.123-.471.9-1.126 1.597-1.962 2.089-.838.493-1.777.738-2.818.738-1.083 0-2.026-.256-2.828-.77-.801-.513-1.385-1.157-1.75-1.93v7.976h-1.457v-16.967h1.456v2.533c.366-.774.946-1.417 1.74-1.931M271.415 398.94h-1.478v-11.522h1.478zm-1.499-14.012a1.061 1.061 0 0 1-.317-.78c0-.31.106-.567.317-.77.211-.205.464-.307.76-.307.295 0 .549.102.76.306.21.204.316.46.316.77s-.106.57-.316.781a1.036 1.036 0 0 1-.76.316c-.296 0-.549-.105-.76-.316M283.59 390.732a4.064 4.064 0 0 0-1.55-1.626 4.232 4.232 0 0 0-2.164-.57c-.815 0-1.547.184-2.194.55-.647.366-1.157.897-1.53 1.593s-.56 1.523-.56 2.48c0 .942.187 1.769.56 2.48.373.71.883 1.251 1.53 1.624.647.373 1.379.559 2.194.559.788 0 1.51-.19 2.164-.57a4.067 4.067 0 0 0 1.55-1.625c.38-.703.57-1.519.57-2.448 0-.928-.19-1.744-.57-2.447m-8.789-.686c.472-.894 1.126-1.583 1.963-2.069.837-.485 1.783-.727 2.838-.727 1.097 0 2.044.253 2.839.759.794.507 1.368 1.154 1.72 1.942v-2.533h1.477v11.523h-1.477v-2.554c-.366.788-.947 1.439-1.742 1.952-.794.514-1.74.77-2.838.77-1.041 0-1.98-.246-2.817-.738-.837-.492-1.491-1.189-1.963-2.09-.471-.9-.707-1.94-.707-3.123 0-1.181.236-2.219.707-3.112M301.95 397.305c.647-.345 1.171-.865 1.572-1.562.401-.696.602-1.55.602-2.564 0-1.012-.198-1.867-.591-2.564-.395-.696-.915-1.216-1.562-1.561a4.418 4.418 0 0 0-2.11-.517c-.76 0-1.464.172-2.11.517-.648.345-1.165.865-1.552 1.561-.387.697-.58 1.552-.58 2.564 0 1.013.193 1.868.58 2.564.387.697.9 1.217 1.54 1.562s1.341.517 2.1.517c.76 0 1.464-.172 2.111-.517m-5.033 1.076a5.26 5.26 0 0 1-2.047-2.068c-.5-.893-.75-1.938-.75-3.134 0-1.195.254-2.24.76-3.133a5.313 5.313 0 0 1 2.069-2.068c.872-.486 1.85-.729 2.933-.729 1.083 0 2.064.243 2.944.729a5.225 5.225 0 0 1 2.068 2.068c.5.893.749 1.938.749 3.133 0 1.182-.253 2.224-.76 3.124a5.256 5.256 0 0 1-2.089 2.078c-.886.486-1.871.728-2.955.728-1.083 0-2.057-.242-2.922-.728M317.123 388.484c.873.852 1.309 2.086 1.309 3.704v6.753h-1.457v-6.585c0-1.252-.313-2.208-.938-2.87-.627-.661-1.481-.991-2.565-.991-1.111 0-1.997.351-2.659 1.055-.661.703-.991 1.737-.991 3.102v6.289h-1.478v-11.523h1.478v1.963a3.77 3.77 0 0 1 1.582-1.615c.69-.372 1.47-.559 2.343-.559 1.378 0 2.504.426 3.376 1.277M323.18 398.94h-1.477v-15.616h1.477zM328.012 398.94h-1.477v-11.522h1.477zm-1.498-14.012a1.06 1.06 0 0 1-.317-.78c0-.31.105-.567.317-.77.21-.205.464-.307.76-.307.295 0 .548.102.76.306.21.204.316.46.316.77s-.106.57-.317.781a1.037 1.037 0 0 1-.76.316c-.295 0-.548-.105-.76-.316M340.146 388.484c.873.852 1.309 2.086 1.309 3.704v6.753h-1.457v-6.585c0-1.252-.313-2.208-.938-2.87-.627-.661-1.481-.991-2.565-.991-1.111 0-1.997.351-2.659 1.055-.661.703-.991 1.737-.991 3.102v6.289h-1.478v-11.523h1.478v1.963a3.77 3.77 0 0 1 1.582-1.615c.69-.372 1.47-.559 2.343-.559 1.378 0 2.504.426 3.376 1.277M353.135 390.352a3.497 3.497 0 0 0-1.467-1.372 4.473 4.473 0 0 0-2.025-.464c-1.098 0-2.034.351-2.807 1.055-.774.703-1.203 1.695-1.287 2.975h8.103c.014-.857-.158-1.59-.517-2.194m1.973 3.397h-9.56c.043.873.254 1.618.633 2.237.38.62.88 1.087 1.499 1.404a4.387 4.387 0 0 0 2.026.474c.956 0 1.762-.232 2.416-.696a3.268 3.268 0 0 0 1.298-1.878h1.562a4.88 4.88 0 0 1-1.805 2.753c-.921.711-2.078 1.066-3.471 1.066-1.084 0-2.054-.242-2.912-.727a5.142 5.142 0 0 1-2.016-2.069c-.485-.893-.728-1.937-.728-3.134 0-1.195.24-2.243.718-3.144a4.981 4.981 0 0 1 2.005-2.068c.858-.478 1.836-.718 2.933-.718 1.097 0 2.057.24 2.88.718a4.96 4.96 0 0 1 1.9 1.93c.443.81.664 1.707.664 2.691 0 .507-.014.894-.042 1.161M352.444 268.119c-5.96 2.003-17.385 5.283-32.145 6.732-24.664 2.425-47.995-1.1-69.352-10.47-21.358-9.37-39.779-24.162-54.768-43.968-8.99-11.885-14.367-22.537-16.942-28.284l-22.39 16.908c2.528 6.366 25.024 59.503 81.447 84.257 56.422 24.754 110.501 5.212 116.856 2.743z"/><path fill="#fef7e4" d="m347.502 219.838-2.731-28.008-15.934 10.824-9.257-95.04-76.201 57.548-2.825-19.054-22.458 16.957-26.726 20.199c2.02 5.12 20.1 47.82 65.455 67.718 45.342 19.893 88.803 4.192 93.911 2.2z"/></svg>