<svg xmlns="http://www.w3.org/2000/svg" viewBox="0 0 512 512"><defs><linearGradient id="a" x1="0" x2="1" y1="0" y2="0" gradientTransform="translate(156.85 368.916) scale(198.3035)" gradientUnits="userSpaceOnUse" spreadMethod="pad"><stop offset="0" stop-color="#7abbb3"/><stop offset=".85" stop-color="#2c5860"/><stop offset="1" stop-color="#2c5860"/></linearGradient><linearGradient id="b" x1="0" x2="1" y1="0" y2="0" gradientTransform="rotate(23.688 -443.752 473.488) scale(216.54871)" gradientUnits="userSpaceOnUse" spreadMethod="pad"><stop offset="0" stop-color="#7abbb3"/><stop offset=".85" stop-color="#2c5860"/><stop offset="1" stop-color="#2c5860"/></linearGradient><linearGradient id="c" x1="0" x2="1" y1="0" y2="0" gradientTransform="rotate(23.688 -239.84 569.168) scale(174.02899)" gradientUnits="userSpaceOnUse" spreadMethod="pad"><stop offset="0" stop-color="#7abbb3"/><stop offset=".85" stop-color="#2c5860"/><stop offset="1" stop-color="#2c5860"/></linearGradient></defs><path fill="#fef7e4" d="M0 0h512v512H0z"/><path fill="url(#a)" d="M156.85 338.43v5.332h7.24v21.996h6.657v-21.996h7.24v-5.332zM196.129 344.035v11.796c0 1.453-.377 2.582-1.13 3.386-.752.805-1.777 1.208-3.075 1.208-1.272 0-2.284-.403-3.036-1.208-.754-.804-1.13-1.932-1.13-3.386v-11.796h-6.618v12.691c0 1.895.35 3.543 1.052 4.944.7 1.402 1.687 2.472 2.959 3.212 1.27.74 2.737 1.11 4.399 1.11 1.4 0 2.679-.293 3.834-.877 1.154-.584 2.07-1.356 2.745-2.316v2.959h6.656v-21.723zM215.826 338.43v27.328h12.73c2.854 0 5.08-.668 6.676-2.006 1.596-1.335 2.394-3.146 2.394-5.43 0-1.583-.48-2.99-1.44-4.224-.96-1.232-2.232-2.017-3.815-2.355 1.401-.415 2.524-1.154 3.367-2.22.843-1.062 1.265-2.399 1.265-4.009 0-2.18-.785-3.905-2.354-5.177-1.571-1.272-3.745-1.907-6.521-1.907zm6.657 5.332h4.36c1.09 0 1.927.247 2.51.74.585.494.877 1.207.877 2.141 0 .935-.292 1.642-.876 2.122-.584.48-1.421.72-2.511.72h-4.36zm0 10.59h4.827c1.116 0 1.992.272 2.628.817.636.545.954 1.298.954 2.258s-.306 1.693-.915 2.2c-.61.505-1.473.758-2.59.758h-4.904zM251.057 344.833c-1.168.688-2.141 1.629-2.92 2.823v-3.62h-6.657v21.722h6.657v-10.083c0-1.791.415-3.043 1.246-3.757.83-.714 2.076-1.07 3.737-1.07h1.83v-7.046c-1.428 0-2.726.344-3.893 1.03M264.02 337.962v4.594l9.382-3.932v-5.178zm8.915 6.073v11.796c0 1.453-.377 2.582-1.129 3.386-.753.805-1.778 1.208-3.075 1.208-1.272 0-2.284-.403-3.037-1.208-.753-.804-1.129-1.932-1.129-3.386v-11.796h-6.618v12.691c0 1.895.35 3.543 1.052 4.944.7 1.402 1.686 2.472 2.958 3.212 1.271.74 2.737 1.11 4.399 1.11 1.401 0 2.68-.293 3.834-.877 1.155-.584 2.07-1.356 2.745-2.316v2.959h6.657v-21.723zM284.827 335.607c-.74.688-1.109 1.551-1.109 2.588 0 1.013.37 1.863 1.11 2.55.739.689 1.693 1.032 2.861 1.032 1.142 0 2.083-.343 2.822-1.032.74-.687 1.11-1.537 1.11-2.55 0-1.037-.37-1.9-1.11-2.588-.74-.688-1.68-1.032-2.822-1.032-1.168 0-2.122.344-2.862 1.032m-.447 8.428v24.603c0 .649-.156 1.116-.468 1.402-.311.285-.83.428-1.556.428h-1.597v5.645h2.609c2.413 0 4.294-.59 5.645-1.771 1.349-1.182 2.024-3.109 2.024-5.781v-24.526zM310.618 344.035v11.796c0 1.453-.377 2.582-1.13 3.386-.753.805-1.777 1.208-3.075 1.208-1.272 0-2.284-.403-3.036-1.208-.753-.804-1.129-1.932-1.129-3.386v-11.796h-6.618v12.691c0 1.895.35 3.543 1.051 4.944.7 1.402 1.687 2.472 2.959 3.212 1.27.74 2.738 1.11 4.399 1.11 1.401 0 2.68-.293 3.834-.877 1.155-.584 2.07-1.356 2.745-2.316v2.959h6.656v-21.723zM322.063 365.758h6.657V336.95h-6.657zM336.933 345.086c-1.453.909-2.602 2.206-3.444 3.893-.844 1.687-1.266 3.646-1.266 5.878 0 2.233.422 4.199 1.266 5.898.842 1.7 1.99 3.011 3.444 3.932 1.454.922 3.063 1.383 4.828 1.383 1.53 0 2.874-.312 4.03-.935 1.153-.623 2.056-1.44 2.705-2.453v3.076h6.657v-21.723h-6.657v3.075c-.623-1.012-1.512-1.83-2.667-2.452-1.155-.623-2.498-.934-4.03-.934-1.79 0-3.412.454-4.866 1.362m3.446 13.723c-.922-.974-1.382-2.29-1.382-3.952 0-1.66.46-2.965 1.382-3.912.921-.947 2.044-1.421 3.367-1.421 1.324 0 2.446.48 3.368 1.44.92.961 1.382 2.271 1.382 3.933 0 1.66-.461 2.972-1.382 3.932-.922.96-2.044 1.44-3.368 1.44-1.323 0-2.446-.487-3.367-1.46M160.046 388.02c-.795.514-1.375 1.157-1.74 1.93v-2.532h-1.457v16.967h1.456v-7.977c.366.774.95 1.418 1.752 1.93.802.515 1.744.772 2.828.772 1.04 0 1.98-.247 2.817-.74.837-.491 1.49-1.188 1.963-2.089.47-.9.707-1.94.707-3.123 0-1.181-.236-2.219-.707-3.113-.472-.893-1.126-1.582-1.963-2.068-.837-.485-1.776-.728-2.817-.728-1.098 0-2.044.257-2.839.77m.38 9.233a4.065 4.065 0 0 1-1.551-1.624c-.38-.704-.57-1.52-.57-2.449 0-.928.19-1.744.57-2.448a4.068 4.068 0 0 1 1.551-1.624 4.225 4.225 0 0 1 2.163-.57c.816 0 1.548.183 2.195.548a3.892 3.892 0 0 1 1.53 1.594c.372.696.56 1.523.56 2.48 0 .942-.188 1.769-.56 2.479-.373.71-.884 1.253-1.53 1.625-.647.373-1.38.56-2.195.56a4.23 4.23 0 0 1-2.163-.57M172.634 387.672c-.62.281-1.097.661-1.435 1.139-.338.479-.506 1-.506 1.562 0 .746.186 1.34.559 1.783.373.443.826.777 1.361 1.002.534.226 1.23.451 2.089.675.661.17 1.186.328 1.572.476.387.147.707.348.96.6.254.254.38.578.38.972 0 .563-.228 1.034-.685 1.413-.458.38-1.087.57-1.889.57-.915 0-1.643-.2-2.185-.6-.541-.402-.847-.926-.917-1.573h-1.52c.098 1.055.567 1.888 1.403 2.5.837.612 1.917.919 3.24.919.788 0 1.484-.141 2.09-.422.604-.281 1.075-.665 1.413-1.15a2.829 2.829 0 0 0 .507-1.657c-.014-.676-.198-1.217-.549-1.625a3.452 3.452 0 0 0-1.266-.93c-.493-.21-1.154-.428-1.984-.653a17.996 17.996 0 0 1-1.646-.538 2.825 2.825 0 0 1-1.024-.675c-.274-.289-.411-.658-.411-1.108 0-.52.232-.957.697-1.309.464-.352 1.068-.527 1.814-.527.845 0 1.51.207 1.994.622.486.415.75.96.792 1.636h1.477c-.056-1.097-.464-1.96-1.224-2.586-.76-.625-1.759-.939-2.997-.939-.788 0-1.49.141-2.11.423M181.835 383.377a1.026 1.026 0 0 0-.316.77c0 .31.105.57.316.781.21.211.464.316.76.316.295 0 .548-.105.76-.316.21-.21.316-.471.316-.78 0-.31-.106-.567-.316-.77a1.056 1.056 0 0 0-.76-.307c-.296 0-.55.102-.76.306m.021 15.563h1.478v-11.522h-1.478zM188.714 387.977a5.111 5.111 0 0 0-1.983 2.068c-.479.894-.718 1.939-.718 3.134 0 1.196.24 2.241.718 3.134a5.102 5.102 0 0 0 1.983 2.068c.845.486 1.808.729 2.892.729 1.406 0 2.574-.36 3.503-1.076.928-.718 1.526-1.668 1.793-2.85h-1.583c-.197.845-.622 1.502-1.276 1.973-.654.472-1.467.707-2.438.707-.774 0-1.47-.175-2.089-.527-.62-.352-1.108-.88-1.466-1.583-.36-.703-.539-1.561-.539-2.575 0-1.013.18-1.867.538-2.564.36-.696.848-1.22 1.467-1.572.619-.352 1.315-.527 2.09-.527.97 0 1.783.235 2.437.707.654.471 1.08 1.122 1.276 1.952h1.583c-.267-1.21-.862-2.167-1.783-2.87-.922-.703-2.093-1.056-3.514-1.056-1.083 0-2.047.243-2.89.728M201.777 387.977a5.314 5.314 0 0 0-2.068 2.068c-.506.894-.76 1.939-.76 3.134 0 1.196.25 2.241.75 3.134a5.253 5.253 0 0 0 2.047 2.068c.865.486 1.838.729 2.922.729 1.083 0 2.068-.243 2.955-.729a5.254 5.254 0 0 0 2.089-2.078c.506-.9.76-1.942.76-3.124 0-1.195-.25-2.24-.75-3.134a5.229 5.229 0 0 0-2.068-2.068c-.879-.485-1.86-.728-2.944-.728-1.083 0-2.06.243-2.933.728m.792 9.328c-.641-.345-1.154-.865-1.541-1.561-.387-.697-.58-1.551-.58-2.565 0-1.013.193-1.867.58-2.564.387-.696.904-1.216 1.55-1.56a4.42 4.42 0 0 1 2.111-.518c.76 0 1.463.172 2.11.517.648.345 1.168.865 1.562 1.561.394.697.59 1.551.59 2.564 0 1.014-.2 1.868-.6 2.565-.401.696-.926 1.216-1.572 1.561a4.422 4.422 0 0 1-2.11.517c-.76 0-1.46-.172-2.1-.517M213.595 384.527v2.891h-1.604v1.245h1.604v7.154c0 1.112.253 1.91.76 2.396.506.485 1.28.727 2.321.727h1.583v-1.266h-1.351c-.675 0-1.147-.133-1.414-.4-.268-.267-.4-.753-.4-1.457v-7.154h3.164v-1.245h-3.165v-2.89zM222.732 387.967a4.986 4.986 0 0 0-2.005 2.068c-.478.9-.717 1.949-.717 3.144 0 1.196.243 2.241.728 3.134a5.134 5.134 0 0 0 2.015 2.068c.858.486 1.83.729 2.913.729 1.392 0 2.55-.356 3.471-1.066a4.88 4.88 0 0 0 1.804-2.754h-1.561a3.267 3.267 0 0 1-1.298 1.878c-.654.464-1.46.696-2.416.696a4.389 4.389 0 0 1-2.026-.474 3.725 3.725 0 0 1-1.498-1.404c-.38-.619-.592-1.364-.634-2.237h9.56c.028-.267.042-.654.042-1.16 0-.985-.222-1.882-.665-2.691a4.958 4.958 0 0 0-1.899-1.931c-.823-.478-1.783-.718-2.88-.718-1.098 0-2.076.24-2.934.718m.063 1.604c.774-.704 1.71-1.055 2.807-1.055.731 0 1.407.155 2.026.464.619.31 1.108.767 1.466 1.372.36.605.531 1.337.518 2.194h-8.104c.084-1.28.513-2.272 1.287-2.975M236.776 387.798a3.605 3.605 0 0 0-1.487 1.667v-2.047h-1.478v11.522h1.478v-6.436c0-1.35.323-2.314.97-2.891.647-.576 1.505-.866 2.575-.866h.4v-1.54c-.97 0-1.79.197-2.458.591M243.445 387.977a5.06 5.06 0 0 0-1.963 2.068c-.471.894-.707 1.932-.707 3.113 0 1.182.236 2.224.707 3.123.471.901 1.126 1.598 1.963 2.09.837.492 1.776.739 2.817.739 1.097 0 2.044-.257 2.838-.771.795-.513 1.376-1.164 1.742-1.952v2.553h1.477v-11.522h-1.477v2.533c-.352-.788-.926-1.435-1.72-1.942-.795-.507-1.742-.76-2.839-.76-1.055 0-2.001.243-2.838.728m.918 9.286c-.648-.372-1.157-.914-1.53-1.625-.373-.71-.56-1.537-.56-2.48 0-.956.187-1.783.56-2.48.373-.696.882-1.227 1.53-1.593.647-.365 1.378-.548 2.194-.548.788 0 1.51.19 2.164.57.654.38 1.171.921 1.55 1.624.38.704.57 1.52.57 2.448 0 .93-.19 1.745-.57 2.449a4.062 4.062 0 0 1-1.55 1.624 4.23 4.23 0 0 1-2.164.57c-.815 0-1.547-.186-2.194-.559M258.892 388.02c-.795.514-1.375 1.157-1.741 1.93v-2.532h-1.456v16.967h1.456v-7.977c.366.774.95 1.418 1.752 1.93.802.515 1.744.772 2.828.772 1.04 0 1.98-.247 2.817-.74.837-.491 1.49-1.188 1.963-2.089.47-.9.707-1.94.707-3.123 0-1.181-.237-2.219-.707-3.113-.472-.893-1.126-1.582-1.963-2.068-.837-.485-1.776-.728-2.817-.728-1.098 0-2.044.257-2.84.77m.381 9.233a4.066 4.066 0 0 1-1.551-1.624c-.38-.704-.57-1.52-.57-2.449 0-.928.19-1.744.57-2.448a4.069 4.069 0 0 1 1.551-1.624 4.226 4.226 0 0 1 2.163-.57c.816 0 1.548.183 2.195.548a3.893 3.893 0 0 1 1.53 1.594c.372.696.559 1.523.559 2.48 0 .942-.187 1.769-.56 2.479-.372.71-.883 1.253-1.53 1.625-.646.373-1.378.56-2.194.56a4.23 4.23 0 0 1-2.163-.57M269.918 383.377c-.21.204-.316.461-.316.77 0 .31.105.57.316.781.212.211.464.316.76.316s.548-.105.76-.316c.211-.21.316-.471.316-.78 0-.31-.105-.567-.316-.77a1.055 1.055 0 0 0-.76-.307c-.296 0-.548.102-.76.306m.021 15.563h1.478v-11.522h-1.478zM276.766 387.977c-.837.486-1.491 1.175-1.962 2.068-.472.894-.707 1.932-.707 3.113 0 1.182.235 2.224.707 3.123.47.901 1.125 1.598 1.962 2.09.837.492 1.776.739 2.817.739 1.098 0 2.044-.257 2.839-.771.794-.513 1.374-1.164 1.74-1.952v2.553h1.478v-11.522h-1.477v2.533c-.352-.788-.926-1.435-1.72-1.942-.795-.507-1.74-.76-2.838-.76-1.056 0-2.002.243-2.84.728m.92 9.286c-.648-.372-1.159-.914-1.53-1.625-.374-.71-.56-1.537-.56-2.48 0-.956.186-1.783.56-2.48a3.886 3.886 0 0 1 1.53-1.593c.646-.365 1.378-.548 2.194-.548.787 0 1.509.19 2.163.57.654.38 1.171.921 1.551 1.624.38.704.57 1.52.57 2.448 0 .93-.19 1.745-.57 2.449a4.063 4.063 0 0 1-1.551 1.624c-.654.38-1.376.57-2.163.57-.816 0-1.548-.186-2.195-.559M296.95 387.977a5.313 5.313 0 0 0-2.067 2.068c-.507.894-.76 1.939-.76 3.134 0 1.196.25 2.241.75 3.134a5.253 5.253 0 0 0 2.046 2.068c.865.486 1.84.729 2.923.729s2.068-.243 2.954-.729a5.255 5.255 0 0 0 2.09-2.078c.506-.9.76-1.942.76-3.124 0-1.195-.25-2.24-.75-3.134a5.228 5.228 0 0 0-2.068-2.068c-.88-.485-1.86-.728-2.944-.728-1.083 0-2.061.243-2.934.728m.792 9.328c-.64-.345-1.154-.865-1.54-1.561-.387-.697-.58-1.551-.58-2.565 0-1.013.193-1.867.58-2.564.386-.696.903-1.216 1.55-1.56a4.42 4.42 0 0 1 2.111-.518c.76 0 1.463.172 2.11.517.647.345 1.168.865 1.562 1.561.394.697.591 1.551.591 2.564 0 1.014-.2 1.868-.602 2.565-.4.696-.925 1.216-1.572 1.561a4.418 4.418 0 0 1-2.11.517c-.76 0-1.46-.172-2.1-.517M311.406 387.767a3.776 3.776 0 0 0-1.582 1.614v-1.963h-1.477v11.522h1.477v-6.288c0-1.365.33-2.398.992-3.102.66-.704 1.547-1.055 2.659-1.055 1.083 0 1.937.33 2.564.991.625.662.939 1.618.939 2.87v6.584h1.456v-6.752c0-1.618-.436-2.852-1.309-3.704-.872-.85-1.998-1.277-3.376-1.277-.872 0-1.653.187-2.343.56M321.705 398.94h1.477v-15.616h-1.477zM326.516 383.377a1.027 1.027 0 0 0-.317.77c0 .31.106.57.317.781.211.211.464.316.76.316.295 0 .548-.105.76-.316.21-.21.316-.471.316-.78 0-.31-.106-.567-.316-.77a1.055 1.055 0 0 0-.76-.307c-.296 0-.549.102-.76.306m.021 15.563h1.477v-11.522h-1.477zM334.43 387.767a3.776 3.776 0 0 0-1.584 1.614v-1.963h-1.477v11.522h1.477v-6.288c0-1.365.331-2.398.993-3.102.66-.704 1.547-1.055 2.659-1.055 1.083 0 1.937.33 2.563.991.626.662.94 1.618.94 2.87v6.584h1.456v-6.752c0-1.618-.436-2.852-1.308-3.704-.873-.85-1.999-1.277-3.377-1.277-.873 0-1.653.187-2.343.56M346.775 387.967a4.988 4.988 0 0 0-2.005 2.068c-.478.9-.717 1.949-.717 3.144 0 1.196.242 2.241.727 3.134a5.132 5.132 0 0 0 2.016 2.068c.858.486 1.829.729 2.912.729 1.393 0 2.55-.356 3.471-1.066a4.879 4.879 0 0 0 1.805-2.754h-1.562a3.264 3.264 0 0 1-1.298 1.878c-.654.464-1.46.696-2.416.696a4.387 4.387 0 0 1-2.026-.474 3.723 3.723 0 0 1-1.498-1.404c-.38-.619-.591-1.364-.633-2.237h9.56c.027-.267.041-.654.041-1.16 0-.985-.221-1.882-.664-2.691a4.958 4.958 0 0 0-1.9-1.931c-.823-.478-1.783-.718-2.88-.718s-2.075.24-2.933.718m.063 1.604c.773-.704 1.709-1.055 2.807-1.055.731 0 1.406.155 2.025.464.619.31 1.109.767 1.467 1.372.359.605.53 1.337.517 2.194h-8.104c.084-1.28.514-2.272 1.288-2.975"/><path fill="url(#b)" d="M156.85 209.037c2.527 6.366 25.023 59.503 81.446 84.257 56.423 24.754 110.501 5.212 116.857 2.743l-2.707-27.918c-5.96 2.003-17.385 5.283-32.145 6.732-24.664 2.425-47.995-1.1-69.352-10.47-21.358-9.37-39.778-24.162-54.768-43.968-8.99-11.885-14.367-22.537-16.943-28.284z"/><path fill="url(#c)" d="m243.381 165.162-2.824-19.055-22.46 16.958-26.725 20.2c2.02 5.119 20.1 47.82 65.455 67.717 45.342 19.893 88.803 4.193 93.911 2.2l-3.234-33.344-2.731-28.008-15.934 10.824-9.258-95.04z"/></svg>