<svg xmlns="http://www.w3.org/2000/svg" viewBox="0 0 974.938 308.18"><defs><linearGradient id="a" x1="0" x2="1" y1="0" y2="0" gradientTransform="translate(384.275 154.09) scale(590.66205)" gradientUnits="userSpaceOnUse" spreadMethod="pad"><stop offset="0" stop-color="#7abbb3"/><stop offset=".85" stop-color="#2c5860"/><stop offset="1" stop-color="#2c5860"/></linearGradient><linearGradient id="b" x1="0" x2="1" y1="0" y2="0" gradientTransform="scale(336.91874) rotate(23.688 -1.227 .211)" gradientUnits="userSpaceOnUse" spreadMethod="pad"><stop offset="0" stop-color="#7abbb3"/><stop offset=".85" stop-color="#2c5860"/><stop offset="1" stop-color="#2c5860"/></linearGradient><linearGradient id="c" x1="0" x2="1" y1="0" y2="0" gradientTransform="scale(270.76416) rotate(23.688 -.354 .813)" gradientUnits="userSpaceOnUse" spreadMethod="pad"><stop offset="0" stop-color="#7abbb3"/><stop offset=".85" stop-color="#2c5860"/><stop offset="1" stop-color="#2c5860"/></linearGradient></defs><g fill="url(#a)"><path d="M447.238 63.283v15.885H425.67v65.515h-19.828V79.168h-21.566V63.283ZM501.272 79.981v35.134c0 4.329-1.123 7.692-3.363 10.086-2.243 2.399-5.296 3.596-9.161 3.596-3.788 0-6.803-1.197-9.044-3.596-2.243-2.394-3.363-5.757-3.363-10.086V79.98h-19.712v37.8c0 5.644 1.044 10.552 3.13 14.727 2.087 4.175 5.025 7.363 8.814 9.565 3.785 2.204 8.155 3.306 13.103 3.306 4.173 0 7.98-.871 11.421-2.611 3.437-1.739 6.163-4.037 8.175-6.899v8.814h19.826V79.98ZM559.942 63.283v81.4h37.918c8.501 0 15.132-1.99 19.886-5.972 4.752-3.98 7.13-9.371 7.13-16.175 0-4.715-1.431-8.91-4.29-12.581-2.861-3.671-6.649-6.01-11.364-7.015 4.175-1.236 7.518-3.439 10.031-6.61 2.51-3.17 3.768-7.149 3.768-11.943 0-6.494-2.339-11.634-7.015-15.422-4.678-3.788-11.152-5.682-19.422-5.682zm19.828 15.885h12.987c3.247 0 5.74.736 7.48 2.204 1.739 1.47 2.608 3.595 2.608 6.376 0 2.784-.87 4.892-2.608 6.321-1.74 1.431-4.233 2.144-7.48 2.144H579.77zm0 31.54h14.379c3.323 0 5.932.812 7.827 2.435 1.893 1.624 2.84 3.866 2.84 6.726s-.908 5.043-2.724 6.551c-1.818 1.508-4.388 2.261-7.711 2.261h-14.61zM664.881 82.357c-3.479 2.05-6.379 4.851-8.699 8.407V79.981h-19.826v64.702h19.826V114.65c0-5.335 1.236-9.063 3.712-11.19 2.472-2.125 6.184-3.189 11.132-3.189h5.45V79.285c-4.252 0-8.118 1.024-11.595 3.072M703.492 61.892v13.683l27.944-11.712V48.44Zm26.553 18.09v35.133c0 4.329-1.121 7.692-3.363 10.086-2.242 2.399-5.294 3.596-9.16 3.596-3.788 0-6.802-1.197-9.044-3.596-2.244-2.394-3.362-5.757-3.362-10.086V79.98h-19.712v37.8c0 5.644 1.042 10.552 3.13 14.727 2.087 4.175 5.024 7.363 8.812 9.565 3.787 2.204 8.156 3.306 13.103 3.306 4.173 0 7.98-.871 11.423-2.611 3.437-1.739 6.162-4.037 8.173-6.899v8.814h19.828V79.98ZM765.468 54.877c-2.202 2.048-3.304 4.62-3.304 7.71 0 3.016 1.102 5.548 3.304 7.594 2.204 2.051 5.045 3.074 8.524 3.074 3.4 0 6.202-1.023 8.406-3.074 2.203-2.046 3.304-4.578 3.304-7.594 0-3.09-1.101-5.662-3.304-7.71-2.204-2.049-5.006-3.073-8.406-3.073-3.479 0-6.32 1.024-8.524 3.073m-1.332 25.104v73.283c0 1.93-.464 3.321-1.392 4.173-.927.85-2.475 1.276-4.638 1.276h-4.754v16.814h7.769c7.19 0 12.793-1.76 16.813-5.278 4.019-3.517 6.03-9.257 6.03-17.218V79.98zM842.288 79.981v35.134c0 4.329-1.123 7.692-3.364 10.086-2.243 2.399-5.296 3.596-9.16 3.596-3.788 0-6.803-1.197-9.044-3.596-2.243-2.394-3.363-5.757-3.363-10.086V79.98h-19.712v37.8c0 5.644 1.044 10.552 3.13 14.727 2.087 4.175 5.025 7.363 8.814 9.565 3.785 2.204 8.153 3.306 13.103 3.306 4.173 0 7.98-.871 11.42-2.611 3.438-1.739 6.164-4.037 8.176-6.899v8.814h19.826V79.98ZM876.377 144.683h19.828V58.876h-19.828zM920.672 83.112c-4.331 2.705-7.751 6.57-10.263 11.595-2.513 5.025-3.768 10.861-3.768 17.509s1.255 12.504 3.768 17.568c2.512 5.063 5.932 8.967 10.263 11.71 4.328 2.745 9.12 4.117 14.378 4.117 4.56 0 8.559-.928 12-2.783 3.439-1.856 6.126-4.29 8.059-7.307v9.162h19.83V79.98h-19.83v9.159c-1.855-3.013-4.504-5.448-7.943-7.304-3.44-1.855-7.441-2.784-12.001-2.784-5.335 0-10.165 1.353-14.493 4.06m10.261 40.873c-2.745-2.9-4.116-6.821-4.116-11.769 0-4.947 1.37-8.832 4.116-11.653 2.743-2.822 6.087-4.234 10.03-4.234 3.942 0 7.286 1.432 10.03 4.291 2.743 2.86 4.116 6.765 4.116 11.712 0 4.948-1.373 8.852-4.116 11.71-2.744 2.862-6.088 4.291-10.03 4.291-3.943 0-7.287-1.449-10.03-4.348"/><path d="M393.798 210.992c-2.368 1.53-4.097 3.448-5.185 5.752V209.2h-4.339v50.537h4.339V235.98c1.088 2.305 2.828 4.221 5.216 5.75 2.39 1.531 5.196 2.295 8.423 2.295 3.101 0 5.898-.733 8.392-2.2 2.492-1.467 4.441-3.54 5.846-6.224 1.403-2.68 2.104-5.783 2.104-9.301 0-3.52-.701-6.611-2.104-9.274-1.405-2.658-3.354-4.713-5.846-6.158-2.494-1.447-5.291-2.17-8.392-2.17-3.268 0-6.086.767-8.454 2.295m1.132 27.5c-1.949-1.13-3.489-2.744-4.62-4.839-1.132-2.096-1.697-4.526-1.697-7.293 0-2.765.565-5.195 1.697-7.29 1.131-2.095 2.671-3.71 4.62-4.84 1.948-1.131 4.095-1.698 6.443-1.698 2.43 0 4.61.544 6.537 1.635 1.926 1.09 3.447 2.67 4.556 4.745 1.111 2.073 1.666 4.537 1.666 7.387 0 2.808-.555 5.269-1.666 7.385-1.109 2.116-2.63 3.73-4.556 4.84-1.928 1.11-4.108 1.665-6.537 1.665-2.348 0-4.495-.566-6.443-1.697M431.292 209.956c-1.844.839-3.268 1.97-4.274 3.393-1.006 1.426-1.509 2.976-1.509 4.651 0 2.223.555 3.992 1.667 5.312a10.586 10.586 0 0 0 4.053 2.987c1.592.67 3.667 1.341 6.223 2.01 1.969.503 3.53.975 4.684 1.415 1.152.44 2.104 1.037 2.86 1.79.754.755 1.13 1.72 1.13 2.893 0 1.676-.681 3.08-2.042 4.212-1.363 1.13-3.238 1.696-5.627 1.696-2.724 0-4.892-.598-6.505-1.791-1.614-1.196-2.524-2.756-2.735-4.684h-4.525c.293 3.144 1.686 5.627 4.18 7.45 2.492 1.822 5.709 2.734 9.649 2.734 2.345 0 4.421-.42 6.223-1.257 1.8-.838 3.205-1.98 4.212-3.426 1.005-1.446 1.508-3.09 1.508-4.934-.043-2.012-.587-3.624-1.635-4.84a10.253 10.253 0 0 0-3.772-2.766c-1.467-.629-3.435-1.278-5.907-1.949-2.054-.587-3.689-1.12-4.904-1.601-1.216-.483-2.232-1.154-3.049-2.014-.817-.857-1.225-1.957-1.225-3.3 0-1.549.692-2.848 2.074-3.897 1.383-1.047 3.184-1.57 5.406-1.57 2.514 0 4.494.618 5.94 1.854 1.446 1.236 2.232 2.86 2.358 4.87h4.399c-.168-3.267-1.383-5.834-3.645-7.7-2.264-1.863-5.239-2.797-8.926-2.797-2.348 0-4.442.419-6.286 1.259M458.698 197.164c-.629.608-.944 1.372-.944 2.293 0 .923.315 1.698.944 2.327.628.628 1.382.943 2.262.943.881 0 1.634-.315 2.262-.943.63-.63.944-1.404.944-2.327 0-.921-.314-1.685-.944-2.293a3.137 3.137 0 0 0-2.262-.913c-.88 0-1.634.305-2.262.913m.062 46.356h4.4V209.2h-4.4zM479.188 210.867c-2.514 1.445-4.484 3.5-5.908 6.158-1.426 2.663-2.138 5.775-2.138 9.335 0 3.563.712 6.675 2.138 9.335 1.424 2.662 3.394 4.714 5.908 6.16 2.514 1.446 5.384 2.169 8.612 2.169 4.189 0 7.668-1.068 10.434-3.205 2.766-2.138 4.547-4.967 5.343-8.487h-4.715c-.588 2.515-1.854 4.473-3.802 5.877-1.948 1.406-4.368 2.106-7.26 2.106-2.306 0-4.38-.523-6.223-1.571-1.844-1.047-3.3-2.617-4.37-4.716-1.067-2.093-1.6-4.65-1.6-7.668 0-3.016.533-5.563 1.6-7.636 1.07-2.075 2.526-3.635 4.37-4.684 1.843-1.047 3.917-1.57 6.223-1.57 2.892 0 5.312.7 7.26 2.106 1.948 1.404 3.214 3.341 3.802 5.813h4.715c-.796-3.604-2.567-6.452-5.312-8.549-2.744-2.093-6.233-3.143-10.465-3.143-3.228 0-6.098.723-8.612 2.17M518.097 210.867c-2.6 1.445-4.652 3.5-6.16 6.158-1.51 2.663-2.263 5.775-2.263 9.335 0 3.563.743 6.675 2.231 9.335 1.488 2.662 3.52 4.714 6.097 6.16 2.578 1.446 5.479 2.169 8.706 2.169 3.226 0 6.161-.723 8.801-2.17 2.64-1.445 4.713-3.507 6.221-6.19 1.508-2.681 2.264-5.784 2.264-9.304 0-3.56-.744-6.672-2.232-9.335-1.488-2.658-3.541-4.713-6.16-6.158-2.62-1.447-5.541-2.17-8.768-2.17-3.228 0-6.14.723-8.737 2.17m2.356 27.781c-1.907-1.024-3.435-2.576-4.588-4.65-1.152-2.074-1.728-4.62-1.728-7.638 0-3.016.576-5.563 1.728-7.636 1.153-2.075 2.692-3.624 4.62-4.652 1.927-1.025 4.023-1.54 6.287-1.54 2.261 0 4.357.515 6.285 1.54 1.927 1.028 3.477 2.577 4.65 4.652 1.174 2.073 1.762 4.62 1.762 7.636 0 3.019-.597 5.564-1.792 7.639-1.195 2.073-2.756 3.625-4.684 4.649-1.927 1.03-4.023 1.541-6.285 1.541-2.263 0-4.348-.512-6.255-1.541M553.296 200.59v8.61h-4.778v3.71h4.778v21.309c0 3.31.754 5.688 2.264 7.133 1.508 1.447 3.812 2.168 6.914 2.168h4.715v-3.77h-4.024c-2.01 0-3.415-.398-4.21-1.195-.798-.795-1.197-2.24-1.197-4.336v-21.31h9.431V209.2h-9.43v-8.61zM580.513 210.835c-2.557 1.425-4.548 3.478-5.97 6.161-1.426 2.68-2.138 5.804-2.138 9.364 0 3.563.723 6.675 2.168 9.335 1.445 2.662 3.447 4.714 6.003 6.16 2.556 1.446 5.446 2.169 8.674 2.169 4.15 0 7.595-1.057 10.34-3.175 2.744-2.116 4.536-4.849 5.375-8.202h-4.652c-.628 2.348-1.917 4.212-3.867 5.593-1.946 1.383-4.346 2.075-7.196 2.075-2.178 0-4.19-.471-6.034-1.415-1.844-.941-3.331-2.335-4.463-4.179-1.132-1.844-1.76-4.065-1.885-6.662h28.473c.084-.798.127-1.95.127-3.459 0-2.932-.66-5.604-1.98-8.013-1.32-2.41-3.206-4.327-5.658-5.752-2.452-1.424-5.31-2.138-8.58-2.138-3.268 0-6.182.714-8.737 2.138m.19 4.777c2.303-2.095 5.09-3.143 8.36-3.143 2.177 0 4.189.463 6.033 1.383 1.842.923 3.3 2.284 4.369 4.085 1.068 1.803 1.58 3.982 1.54 6.538h-24.137c.25-3.814 1.529-6.767 3.834-8.863M622.344 210.332c-1.991 1.173-3.468 2.828-4.431 4.965V209.2h-4.4v34.32h4.4v-19.17c0-4.025.963-6.894 2.892-8.611 1.927-1.719 4.483-2.579 7.668-2.579h1.195v-4.588c-2.892 0-5.334.588-7.324 1.76M642.208 210.867c-2.494 1.445-4.443 3.5-5.847 6.158-1.404 2.663-2.105 5.754-2.105 9.274 0 3.518.701 6.621 2.105 9.301 1.404 2.684 3.353 4.757 5.847 6.224 2.492 1.467 5.289 2.2 8.39 2.2 3.268 0 6.087-.764 8.455-2.295 2.367-1.529 4.096-3.466 5.185-5.814v7.605h4.402V209.2h-4.402v7.544c-1.046-2.348-2.754-4.275-5.122-5.784-2.368-1.508-5.186-2.263-8.454-2.263-3.144 0-5.962.723-8.454 2.17m2.733 27.657c-1.927-1.11-3.447-2.724-4.556-4.84-1.11-2.116-1.667-4.577-1.667-7.385 0-2.85.556-5.314 1.667-7.387 1.11-2.075 2.63-3.655 4.556-4.745 1.928-1.091 4.107-1.635 6.539-1.635 2.345 0 4.493.567 6.442 1.697 1.948 1.131 3.488 2.746 4.62 4.84 1.131 2.096 1.696 4.526 1.696 7.291 0 2.767-.565 5.197-1.696 7.293-1.132 2.095-2.672 3.708-4.62 4.839-1.949 1.13-4.097 1.697-6.442 1.697-2.432 0-4.611-.556-6.539-1.665M688.218 210.992c-2.368 1.53-4.097 3.448-5.185 5.752V209.2h-4.339v50.537h4.339V235.98c1.088 2.305 2.828 4.221 5.216 5.75 2.39 1.531 5.196 2.295 8.423 2.295 3.101 0 5.898-.733 8.392-2.2 2.492-1.467 4.441-3.54 5.846-6.224 1.403-2.68 2.104-5.783 2.104-9.301 0-3.52-.701-6.611-2.104-9.274-1.405-2.658-3.354-4.713-5.846-6.158-2.494-1.447-5.291-2.17-8.392-2.17-3.268 0-6.087.767-8.454 2.295m1.132 27.5c-1.949-1.13-3.489-2.744-4.62-4.839-1.132-2.096-1.697-4.526-1.697-7.293 0-2.765.565-5.195 1.697-7.29 1.131-2.095 2.671-3.71 4.62-4.84 1.948-1.131 4.095-1.698 6.443-1.698 2.43 0 4.61.544 6.537 1.635 1.926 1.09 3.447 2.67 4.556 4.745 1.111 2.073 1.666 4.537 1.666 7.387 0 2.808-.555 5.269-1.666 7.385-1.109 2.116-2.63 3.73-4.556 4.84-1.928 1.11-4.108 1.665-6.537 1.665-2.348 0-4.495-.566-6.443-1.697M721.061 197.164c-.63.608-.943 1.372-.943 2.293 0 .923.314 1.698.943 2.327a3.087 3.087 0 0 0 2.263.943c.88 0 1.633-.315 2.262-.943.63-.63.943-1.404.943-2.327 0-.921-.313-1.685-.943-2.293a3.141 3.141 0 0 0-2.262-.913c-.88 0-1.635.305-2.263.913m.063 46.356h4.4V209.2h-4.4zM741.457 210.867c-2.493 1.445-4.443 3.5-5.845 6.158-1.406 2.663-2.107 5.754-2.107 9.274 0 3.518.701 6.621 2.107 9.301 1.402 2.684 3.352 4.757 5.845 6.224 2.493 1.467 5.29 2.2 8.392 2.2 3.268 0 6.087-.764 8.453-2.295 2.367-1.529 4.096-3.466 5.186-5.814v7.605h4.401V209.2h-4.401v7.544c-1.047-2.348-2.755-4.275-5.123-5.784-2.367-1.508-5.185-2.263-8.453-2.263-3.143 0-5.962.723-8.455 2.17m2.735 27.657c-1.928-1.11-3.448-2.724-4.558-4.84-1.11-2.116-1.665-4.577-1.665-7.385 0-2.85.555-5.314 1.665-7.387 1.11-2.075 2.63-3.655 4.558-4.745 1.926-1.091 4.105-1.635 6.537-1.635 2.345 0 4.493.567 6.443 1.697 1.948 1.131 3.488 2.746 4.62 4.84 1.132 2.096 1.696 4.526 1.696 7.291 0 2.767-.564 5.197-1.696 7.293-1.132 2.095-2.672 3.708-4.62 4.839-1.95 1.13-4.098 1.697-6.443 1.697-2.432 0-4.61-.556-6.537-1.665M801.578 210.867c-2.598 1.445-4.65 3.5-6.16 6.158-1.509 2.663-2.262 5.775-2.262 9.335 0 3.563.742 6.675 2.23 9.335 1.488 2.662 3.522 4.714 6.098 6.16 2.577 1.446 5.478 2.169 8.706 2.169 3.227 0 6.16-.723 8.8-2.17 2.64-1.445 4.714-3.507 6.223-6.19 1.508-2.681 2.263-5.784 2.263-9.304 0-3.56-.744-6.672-2.231-9.335-1.488-2.658-3.543-4.713-6.161-6.158-2.619-1.447-5.542-2.17-8.768-2.17-3.227 0-6.139.723-8.738 2.17m2.358 27.781c-1.907-1.024-3.436-2.576-4.59-4.65-1.152-2.074-1.728-4.62-1.728-7.638 0-3.016.576-5.563 1.728-7.636 1.154-2.075 2.694-3.624 4.62-4.652 1.928-1.025 4.024-1.54 6.287-1.54s4.357.515 6.285 1.54c1.928 1.028 3.479 2.577 4.652 4.652 1.172 2.073 1.76 4.62 1.76 7.636 0 3.019-.597 5.564-1.79 7.639-1.195 2.073-2.758 3.625-4.684 4.649-1.928 1.03-4.023 1.541-6.286 1.541-2.264 0-4.348-.512-6.254-1.541M844.636 210.237c-2.054 1.111-3.626 2.715-4.715 4.808V209.2h-4.399v34.32h4.399v-18.73c0-4.065.985-7.145 2.955-9.24 1.969-2.095 4.609-3.145 7.92-3.145 3.226 0 5.773.986 7.637 2.955 1.864 1.972 2.797 4.82 2.797 8.55v19.61h4.338v-20.113c0-4.819-1.3-8.495-3.898-11.031-2.598-2.536-5.952-3.804-10.057-3.804-2.599 0-4.924.556-6.977 1.665M875.31 243.52h4.399v-46.515h-4.399zM889.641 197.164c-.63.608-.944 1.372-.944 2.293 0 .923.315 1.698.944 2.327a3.087 3.087 0 0 0 2.263.943c.88 0 1.634-.315 2.262-.943.628-.63.943-1.404.943-2.327 0-.921-.315-1.685-.943-2.293a3.139 3.139 0 0 0-2.262-.913c-.88 0-1.635.305-2.263.913m.061 46.356h4.4V209.2h-4.4zM913.212 210.237c-2.054 1.111-3.624 2.715-4.715 4.808V209.2h-4.4v34.32h4.4v-18.73c0-4.065.984-7.145 2.955-9.24 1.969-2.095 4.609-3.145 7.92-3.145 3.225 0 5.772.986 7.637 2.955 1.864 1.972 2.797 4.82 2.797 8.55v19.61h4.336v-20.113c0-4.819-1.298-8.495-3.896-11.031-2.6-2.536-5.95-3.804-10.057-3.804-2.599 0-4.925.556-6.977 1.665M949.982 210.835c-2.556 1.425-4.546 3.478-5.97 6.161-1.424 2.68-2.138 5.804-2.138 9.364 0 3.563.724 6.675 2.168 9.335 1.447 2.662 3.447 4.714 6.004 6.16 2.555 1.446 5.447 2.169 8.674 2.169 4.149 0 7.596-1.057 10.34-3.175 2.745-2.116 4.536-4.849 5.374-8.202h-4.652c-.628 2.348-1.916 4.212-3.865 5.593-1.948 1.383-4.347 2.075-7.197 2.075-2.179 0-4.191-.471-6.034-1.415-1.844-.941-3.332-2.335-4.462-4.179-1.132-1.844-1.762-4.065-1.887-6.662h28.475c.082-.798.126-1.95.126-3.459 0-2.932-.66-5.604-1.98-8.013-1.32-2.41-3.206-4.327-5.658-5.752-2.452-1.424-5.311-2.138-8.58-2.138-3.268 0-6.182.714-8.738 2.138m.19 4.777c2.304-2.095 5.09-3.143 8.36-3.143 2.177 0 4.19.463 6.034 1.383 1.843.923 3.3 2.284 4.368 4.085 1.07 1.803 1.582 3.982 1.542 6.538h-24.139c.252-3.814 1.53-6.767 3.835-8.863"/></g><path fill="url(#b)" d="M0 157.797c3.934 9.906 38.934 92.579 126.72 131.094 87.785 38.513 171.924 8.108 181.812 4.266l-4.211-43.436c-9.272 3.116-27.048 8.22-50.013 10.475-38.372 3.772-74.672-1.712-107.902-16.29-33.23-14.58-61.889-37.594-85.21-68.409-13.988-18.492-22.354-35.064-26.362-44.006z"/><path fill="url(#c)" d="m134.632 89.535-4.395-29.647-34.943 26.384-41.581 31.427c3.143 7.966 31.272 74.401 101.839 105.36 70.545 30.949 138.165 6.522 146.113 3.421l-5.033-51.877-4.25-43.578-24.789 16.842L253.189 0z"/></svg>