<svg xmlns="http://www.w3.org/2000/svg" viewBox="0 0 557.727 834.667"><defs><linearGradient id="a" x1="0" x2="1" y1="0" y2="0" gradientTransform="translate(-.001 734.909) scale(557.72859)" gradientUnits="userSpaceOnUse" spreadMethod="pad"><stop offset="0" stop-color="#7abbb3"/><stop offset=".85" stop-color="#2c5860"/><stop offset="1" stop-color="#2c5860"/></linearGradient><linearGradient id="b" x1="0" x2="1" y1="0" y2="0" gradientTransform="rotate(23.688 -747.006 128.589) scale(609.04324)" gradientUnits="userSpaceOnUse" spreadMethod="pad"><stop offset="0" stop-color="#7abbb3"/><stop offset=".85" stop-color="#2c5860"/><stop offset="1" stop-color="#2c5860"/></linearGradient><linearGradient id="c" x1="0" x2="1" y1="0" y2="0" gradientTransform="rotate(23.688 -173.505 397.689) scale(489.45653)" gradientUnits="userSpaceOnUse" spreadMethod="pad"><stop offset="0" stop-color="#7abbb3"/><stop offset=".85" stop-color="#2c5860"/><stop offset="1" stop-color="#2c5860"/></linearGradient></defs><g fill="url(#a)"><path id="logo-title" d="M59.451 649.165v15H39.086v61.862H20.363v-61.862H-.001v-15zM110.472 664.932v33.175c0 4.089-1.06 7.264-3.176 9.525-2.117 2.264-5 3.396-8.649 3.396-3.577 0-6.425-1.132-8.54-3.396-2.119-2.261-3.176-5.436-3.176-9.525v-33.175H68.318v35.693c0 5.33.985 9.964 2.957 13.906 1.97 3.941 4.744 6.952 8.321 9.033 3.575 2.08 7.7 3.12 12.372 3.12 3.942 0 7.536-.821 10.784-2.464 3.247-1.643 5.82-3.813 7.72-6.515v8.322h18.722v-61.095zM165.871 649.167v76.86h35.803c8.028 0 14.288-1.879 18.777-5.64 4.49-3.756 6.733-8.848 6.733-15.272 0-4.452-1.352-8.412-4.05-11.88-2.702-3.466-6.279-5.675-10.731-6.624 3.943-1.167 7.099-3.247 9.47-6.242 2.371-2.99 3.56-6.749 3.56-11.277 0-6.13-2.209-10.984-6.623-14.561-4.418-3.576-10.531-5.364-18.34-5.364zm18.723 14.998h12.262c3.066 0 5.419.695 7.062 2.08 1.642 1.388 2.464 3.395 2.464 6.023 0 2.628-.822 4.617-2.464 5.967-1.643 1.352-3.996 2.025-7.062 2.025h-12.262zm0 29.782h13.576c3.138 0 5.601.766 7.39 2.298 1.788 1.534 2.683 3.651 2.683 6.351 0 2.701-.859 4.763-2.573 6.187-1.716 1.422-4.143 2.134-7.282 2.134h-13.794zM264.958 667.176c-3.286 1.935-6.022 4.581-8.212 7.939v-10.183h-18.723v61.095h18.723v-28.358c0-5.037 1.166-8.557 3.504-10.566 2.336-2.007 5.838-3.011 10.51-3.011h5.146v-19.816c-4.015 0-7.664.968-10.948 2.9M301.416 647.852v12.92l26.388-11.059v-14.562zm25.074 17.08v33.175c0 4.089-1.06 7.264-3.175 9.525-2.119 2.264-5.001 3.396-8.65 3.396-3.577 0-6.423-1.132-8.54-3.396-2.118-2.261-3.175-5.436-3.175-9.525v-33.175h-18.614v35.693c0 5.33.986 9.964 2.958 13.906 1.969 3.941 4.742 6.952 8.32 9.033 3.576 2.08 7.7 3.12 12.372 3.12 3.942 0 7.536-.821 10.784-2.464 3.248-1.643 5.82-3.813 7.72-6.515v8.322h18.722v-61.095zM359.938 641.228c-2.08 1.935-3.12 4.363-3.12 7.28 0 2.847 1.04 5.239 3.12 7.172 2.08 1.936 4.762 2.901 8.048 2.901 3.21 0 5.857-.965 7.937-2.901 2.08-1.933 3.121-4.325 3.121-7.172 0-2.917-1.041-5.345-3.121-7.28-2.08-1.935-4.727-2.901-7.937-2.901-3.286 0-5.968.966-8.048 2.901m-1.259 23.704v69.196c0 1.824-.439 3.139-1.315 3.943-.876.801-2.336 1.204-4.378 1.204h-4.49v15.876h7.336c6.788 0 12.079-1.662 15.876-4.982 3.795-3.322 5.694-8.742 5.694-16.258v-68.979zM432.472 664.932v33.175c0 4.089-1.058 7.264-3.174 9.525-2.119 2.264-5 3.396-8.65 3.396-3.577 0-6.424-1.132-8.54-3.396-2.117-2.261-3.174-5.436-3.174-9.525v-33.175H390.32v35.693c0 5.33.986 9.964 2.956 13.906 1.971 3.941 4.744 6.952 8.322 9.033 3.574 2.08 7.7 3.12 12.372 3.12 3.941 0 7.536-.821 10.784-2.464 3.248-1.643 5.82-3.813 7.718-6.515v8.322h18.723v-61.095zM464.663 726.027h18.723v-81.022h-18.723zM506.486 667.888c-4.088 2.556-7.319 6.205-9.688 10.95-2.374 4.745-3.56 10.254-3.56 16.531 0 6.279 1.186 11.808 3.56 16.588 2.369 4.783 5.6 8.468 9.688 11.059 4.088 2.592 8.613 3.888 13.577 3.888 4.305 0 8.083-.877 11.333-2.628 3.246-1.752 5.784-4.052 7.61-6.9v8.65h18.721v-61.094h-18.721v8.65c-1.754-2.847-4.254-5.146-7.5-6.898-3.25-1.752-7.027-2.628-11.334-2.628-5.036 0-9.598 1.277-13.686 3.832m9.69 38.595c-2.592-2.738-3.886-6.44-3.886-11.114 0-4.669 1.294-8.338 3.886-11.002 2.591-2.666 5.748-3.998 9.471-3.998s6.879 1.352 9.47 4.052c2.591 2.702 3.889 6.387 3.889 11.059s-1.298 8.359-3.888 11.059c-2.592 2.701-5.748 4.05-9.471 4.05s-6.88-1.369-9.47-4.106"/><path id="logo-subtitle" d="M8.99 788.639c-2.235 1.445-3.867 3.256-4.896 5.43v-7.122H-.001v47.72h4.095v-22.435c1.029 2.176 2.672 3.987 4.926 5.43 2.256 1.446 4.906 2.167 7.954 2.167 2.928 0 5.569-.693 7.924-2.078 2.353-1.384 4.192-3.343 5.52-5.876 1.324-2.531 1.988-5.459 1.988-8.784 0-3.323-.664-6.24-1.988-8.755-1.328-2.512-3.167-4.45-5.52-5.816-2.355-1.365-4.996-2.048-7.924-2.048-3.087 0-5.748.723-7.984 2.167m1.069 25.966c-1.84-1.068-3.293-2.59-4.363-4.569-1.068-1.979-1.602-4.273-1.602-6.885s.534-4.907 1.602-6.886c1.07-1.977 2.523-3.501 4.363-4.569 1.84-1.07 3.867-1.603 6.083-1.603 2.294 0 4.353.515 6.173 1.543 1.819 1.03 3.255 2.523 4.303 4.481 1.048 1.959 1.573 4.284 1.573 6.974 0 2.652-.525 4.977-1.573 6.974-1.048 1.999-2.484 3.523-4.303 4.571-1.82 1.048-3.879 1.572-6.173 1.572-2.216 0-4.243-.535-6.083-1.603M44.394 787.66c-1.742.792-3.087 1.86-4.036 3.204-.95 1.347-1.424 2.81-1.424 4.392 0 2.099.522 3.77 1.572 5.016a9.99 9.99 0 0 0 3.829 2.819c1.503.634 3.461 1.268 5.875 1.898 1.86.476 3.334.923 4.422 1.338 1.088.414 1.988.978 2.7 1.69.714.712 1.07 1.624 1.07 2.731 0 1.584-.644 2.908-1.93 3.976s-3.057 1.603-5.312 1.603c-2.572 0-4.621-.564-6.144-1.691-1.522-1.128-2.384-2.603-2.581-4.423h-4.273c.276 2.97 1.593 5.312 3.946 7.034 2.354 1.721 5.391 2.582 9.111 2.582 2.216 0 4.173-.396 5.877-1.186 1.7-.791 3.026-1.871 3.975-3.236.95-1.366 1.425-2.919 1.425-4.659-.04-1.9-.554-3.421-1.542-4.57a9.71 9.71 0 0 0-3.562-2.613c-1.386-.593-3.245-1.205-5.578-1.84-1.94-.553-3.483-1.057-4.63-1.513-1.149-.455-2.108-1.088-2.88-1.899-.77-.81-1.157-1.849-1.157-3.116 0-1.464.653-2.689 1.96-3.68 1.305-.989 3.005-1.482 5.103-1.482 2.376 0 4.245.582 5.609 1.75 1.365 1.167 2.107 2.7 2.227 4.599h4.153c-.159-3.085-1.305-5.51-3.441-7.27-2.138-1.76-4.948-2.642-8.43-2.642-2.216 0-4.193.396-5.934 1.188M70.272 775.581c-.594.575-.89 1.298-.89 2.167 0 .87.296 1.603.89 2.196a2.91 2.91 0 0 0 2.136.89c.831 0 1.543-.297 2.138-.89.592-.593.889-1.325.889-2.196 0-.87-.297-1.592-.89-2.167a2.97 2.97 0 0 0-2.137-.86c-.83 0-1.544.287-2.136.86m.059 43.772h4.155v-32.406H70.33zM89.619 788.52c-2.373 1.365-4.235 3.304-5.579 5.816-1.345 2.515-2.018 5.452-2.018 8.815 0 3.362.673 6.301 2.018 8.813 1.344 2.515 3.206 4.452 5.579 5.816 2.375 1.367 5.085 2.05 8.132 2.05 3.956 0 7.24-1.01 9.853-3.027 2.611-2.019 4.292-4.69 5.044-8.014h-4.452c-.554 2.375-1.75 4.224-3.59 5.55-1.839 1.326-4.126 1.988-6.855 1.988-2.177 0-4.136-.494-5.876-1.484-1.743-.988-3.116-2.472-4.125-4.452-1.01-1.978-1.514-4.391-1.514-7.24 0-2.85.504-5.254 1.514-7.212 1.009-1.958 2.382-3.431 4.125-4.422 1.74-.989 3.699-1.482 5.876-1.482 2.73 0 5.016.661 6.855 1.988 1.84 1.325 3.036 3.154 3.59 5.489h4.452c-.752-3.403-2.424-6.093-5.016-8.072-2.592-1.977-5.885-2.968-9.881-2.968-3.047 0-5.757.683-8.132 2.048M126.359 788.52c-2.455 1.365-4.392 3.304-5.817 5.816-1.424 2.515-2.138 5.452-2.138 8.815 0 3.362.703 6.301 2.108 8.813 1.404 2.515 3.324 4.452 5.758 5.816 2.433 1.367 5.172 2.05 8.22 2.05 3.046 0 5.816-.683 8.309-2.05 2.493-1.364 4.452-3.313 5.876-5.844 1.424-2.532 2.137-5.461 2.137-8.785 0-3.363-.702-6.3-2.106-8.815-1.406-2.512-3.346-4.45-5.818-5.816-2.473-1.365-5.233-2.048-8.28-2.048-3.048 0-5.797.683-8.249 2.048m2.225 26.235c-1.801-.971-3.244-2.435-4.333-4.392-1.088-1.959-1.632-4.363-1.632-7.212 0-2.85.544-5.254 1.632-7.212 1.09-1.958 2.543-3.422 4.363-4.391 1.82-.97 3.798-1.455 5.934-1.455 2.138 0 4.115.486 5.936 1.455 1.82.97 3.284 2.433 4.392 4.39 1.107 1.96 1.662 4.363 1.662 7.213 0 2.849-.563 5.253-1.691 7.212-1.128 1.957-2.603 3.421-4.421 4.392-1.822.969-3.799 1.453-5.936 1.453-2.138 0-4.106-.484-5.906-1.453M159.596 778.816v8.13h-4.51v3.503h4.51v20.12c0 3.127.712 5.372 2.136 6.738 1.424 1.365 3.6 2.046 6.53 2.046h4.45v-3.561h-3.798c-1.899 0-3.226-.376-3.976-1.127-.754-.75-1.128-2.117-1.128-4.096v-20.12h8.902v-3.502h-8.902v-8.131zM185.295 788.49c-2.415 1.346-4.295 3.286-5.639 5.817-1.346 2.533-2.018 5.481-2.018 8.844 0 3.362.684 6.301 2.048 8.813 1.365 2.515 3.254 4.452 5.668 5.816 2.413 1.367 5.144 2.05 8.192 2.05 3.916 0 7.17-1 9.762-2.998 2.591-1.997 4.283-4.58 5.075-7.747h-4.392c-.593 2.218-1.81 3.979-3.65 5.283-1.84 1.305-4.105 1.959-6.795 1.959-2.059 0-3.958-.446-5.699-1.335-1.741-.89-3.145-2.205-4.213-3.947-1.07-1.741-1.663-3.837-1.782-6.292h26.887c.079-.75.119-1.84.119-3.265 0-2.768-.623-5.292-1.87-7.567-1.246-2.276-3.026-4.085-5.341-5.43-2.315-1.346-5.016-2.019-8.101-2.019-3.087 0-5.839.673-8.251 2.019m.177 4.51c2.176-1.978 4.808-2.966 7.895-2.966 2.056 0 3.956.434 5.697 1.305 1.742.87 3.116 2.157 4.126 3.857 1.009 1.702 1.493 3.76 1.454 6.172h-22.792c.238-3.6 1.444-6.389 3.62-8.368M224.794 788.016c-1.88 1.108-3.275 2.67-4.184 4.688v-5.757h-4.155v32.406h4.155v-18.101c0-3.8.909-6.51 2.729-8.132 1.82-1.621 4.233-2.435 7.241-2.435h1.128v-4.332c-2.73 0-5.036.555-6.914 1.663M243.55 788.52c-2.355 1.365-4.196 3.304-5.52 5.816-1.327 2.515-1.99 5.432-1.99 8.755 0 3.325.663 6.253 1.99 8.784 1.324 2.533 3.165 4.492 5.52 5.876 2.353 1.385 4.994 2.078 7.922 2.078 3.087 0 5.748-.721 7.983-2.168 2.236-1.442 3.868-3.273 4.897-5.489v7.181h4.155v-32.406h-4.155v7.122c-.989-2.216-2.602-4.034-4.837-5.461-2.236-1.424-4.897-2.136-7.983-2.136-2.968 0-5.629.683-7.982 2.048m2.581 26.116c-1.821-1.048-3.255-2.572-4.304-4.57-1.048-1.998-1.572-4.323-1.572-6.975 0-2.69.524-5.015 1.572-6.974 1.05-1.958 2.483-3.452 4.304-4.481 1.82-1.028 3.877-1.543 6.172-1.543 2.216 0 4.245.534 6.084 1.603 1.84 1.068 3.295 2.592 4.363 4.57 1.069 1.978 1.602 4.273 1.602 6.885s-.533 4.906-1.602 6.885c-1.068 1.979-2.523 3.501-4.363 4.57-1.839 1.067-3.868 1.602-6.084 1.602-2.295 0-4.352-.524-6.172-1.572M286.994 788.639c-2.235 1.445-3.867 3.256-4.896 5.43v-7.122h-4.095v47.72h4.095v-22.435c1.029 2.176 2.672 3.987 4.926 5.43 2.256 1.446 4.906 2.167 7.954 2.167 2.928 0 5.569-.693 7.924-2.078 2.353-1.384 4.192-3.343 5.52-5.876 1.324-2.531 1.988-5.459 1.988-8.784 0-3.323-.664-6.24-1.988-8.755-1.328-2.512-3.167-4.45-5.52-5.816-2.355-1.365-4.996-2.048-7.924-2.048-3.087 0-5.748.723-7.984 2.167m1.069 25.966c-1.84-1.068-3.293-2.59-4.363-4.569-1.068-1.979-1.602-4.273-1.602-6.885s.534-4.907 1.602-6.886c1.07-1.977 2.523-3.501 4.363-4.569 1.84-1.07 3.867-1.603 6.083-1.603 2.294 0 4.353.515 6.173 1.543 1.819 1.03 3.255 2.523 4.303 4.481 1.048 1.959 1.573 4.284 1.573 6.974 0 2.652-.525 4.977-1.573 6.974-1.048 1.999-2.484 3.523-4.303 4.571-1.82 1.048-3.879 1.572-6.173 1.572-2.216 0-4.243-.535-6.083-1.603M318.006 775.581c-.594.575-.891 1.298-.891 2.167 0 .87.297 1.603.89 2.196.595.593 1.306.89 2.137.89.832 0 1.542-.297 2.137-.89s.89-1.325.89-2.196c0-.87-.295-1.592-.89-2.167a2.968 2.968 0 0 0-2.137-.86c-.831 0-1.542.287-2.136.86m.058 43.772h4.156v-32.406h-4.156zM337.264 788.52c-2.354 1.365-4.193 3.304-5.518 5.816-1.327 2.515-1.988 5.432-1.988 8.755 0 3.325.661 6.253 1.988 8.784 1.325 2.533 3.164 4.492 5.518 5.876 2.355 1.385 4.996 2.078 7.924 2.078 3.087 0 5.748-.721 7.984-2.168 2.234-1.442 3.866-3.273 4.896-5.489v7.181h4.155v-32.406h-4.155v7.122c-.989-2.216-2.602-4.034-4.837-5.461-2.236-1.424-4.896-2.136-7.983-2.136-2.968 0-5.629.683-7.984 2.048m2.583 26.116c-1.82-1.048-3.256-2.572-4.303-4.57-1.049-1.998-1.573-4.323-1.573-6.975 0-2.69.524-5.015 1.573-6.974 1.047-1.958 2.483-3.452 4.303-4.481 1.819-1.028 3.877-1.543 6.173-1.543 2.215 0 4.243.534 6.083 1.603 1.84 1.068 3.295 2.592 4.363 4.57 1.068 1.978 1.602 4.273 1.602 6.885s-.534 4.906-1.602 6.885-2.523 3.501-4.363 4.57c-1.84 1.067-3.868 1.602-6.083 1.602-2.296 0-4.354-.524-6.173-1.572M394.034 788.52c-2.454 1.365-4.392 3.304-5.816 5.816-1.424 2.515-2.138 5.452-2.138 8.815 0 3.362.703 6.301 2.108 8.813 1.404 2.515 3.324 4.452 5.758 5.816 2.433 1.367 5.173 2.05 8.22 2.05 3.046 0 5.816-.683 8.309-2.05 2.493-1.364 4.45-3.313 5.876-5.844 1.424-2.532 2.137-5.461 2.137-8.785 0-3.363-.704-6.3-2.108-8.815-1.405-2.512-3.344-4.45-5.816-5.816-2.473-1.365-5.233-2.048-8.28-2.048-3.046 0-5.797.683-8.25 2.048m2.226 26.235c-1.801-.971-3.245-2.435-4.333-4.392-1.088-1.959-1.632-4.363-1.632-7.212 0-2.85.544-5.254 1.632-7.212 1.088-1.958 2.543-3.422 4.363-4.391 1.82-.97 3.798-1.455 5.936-1.455 2.136 0 4.114.486 5.934 1.455 1.82.97 3.284 2.433 4.392 4.39 1.108 1.96 1.663 4.363 1.663 7.213 0 2.849-.564 5.253-1.692 7.212-1.128 1.957-2.603 3.421-4.423 4.392-1.82.969-3.797 1.453-5.934 1.453-2.136 0-4.106-.484-5.906-1.453M434.691 787.927c-1.939 1.049-3.423 2.562-4.452 4.54v-5.52h-4.153v32.406h4.153v-17.686c0-3.838.93-6.746 2.79-8.726 1.86-1.977 4.353-2.966 7.48-2.966 3.045 0 5.449.929 7.21 2.789 1.76 1.86 2.641 4.55 2.641 8.072v18.517h4.095v-18.992c0-4.55-1.227-8.021-3.68-10.416-2.453-2.393-5.619-3.592-9.496-3.592-2.453 0-4.65.526-6.588 1.574M463.655 819.353h4.155v-43.92h-4.155zM477.187 775.581c-.595.575-.89 1.298-.89 2.167 0 .87.295 1.603.89 2.196.593.593 1.305.89 2.136.89.832 0 1.543-.297 2.137-.89.592-.593.891-1.325.891-2.196 0-.87-.299-1.592-.89-2.167a2.968 2.968 0 0 0-2.138-.86c-.83 0-1.543.287-2.136.86m.059 43.772h4.154v-32.406h-4.154zM499.443 787.927c-1.939 1.049-3.423 2.562-4.452 4.54v-5.52h-4.155v32.406h4.155v-17.686c0-3.838.93-6.746 2.79-8.726 1.86-1.977 4.353-2.966 7.48-2.966 3.046 0 5.449.929 7.21 2.789 1.76 1.86 2.641 4.55 2.641 8.072v18.517h4.095v-18.992c0-4.55-1.225-8.021-3.679-10.416-2.454-2.393-5.62-3.592-9.497-3.592-2.453 0-4.65.526-6.588 1.574M534.164 788.49c-2.414 1.346-4.293 3.286-5.638 5.817-1.346 2.533-2.018 5.481-2.018 8.844 0 3.362.682 6.301 2.047 8.813 1.365 2.515 3.255 4.452 5.67 5.816 2.411 1.367 5.142 2.05 8.189 2.05 3.918 0 7.172-1 9.764-2.998 2.592-1.997 4.282-4.58 5.074-7.747h-4.392c-.593 2.218-1.809 3.979-3.65 5.283-1.84 1.305-4.106 1.959-6.796 1.959-2.058 0-3.958-.446-5.698-1.335-1.742-.89-3.146-2.205-4.214-3.947-1.068-1.741-1.662-3.837-1.78-6.292h26.886c.08-.75.119-1.84.119-3.265 0-2.768-.623-5.292-1.87-7.567-1.246-2.276-3.027-4.085-5.342-5.43-2.315-1.346-5.015-2.019-8.101-2.019-3.086 0-5.836.673-8.25 2.019m.178 4.51c2.176-1.978 4.808-2.966 7.894-2.966 2.058 0 3.956.434 5.698 1.305 1.74.87 3.117 2.157 4.125 3.857 1.01 1.702 1.493 3.76 1.453 6.172h-22.79c.237-3.6 1.444-6.389 3.62-8.368"/></g><g id="logo-compass"><path fill="url(#b)" d="M-.001 285.25c7.11 17.903 70.379 167.353 229.068 236.974 158.69 69.62 310.785 14.657 328.66 7.713l-7.612-78.52c-16.763 5.634-48.896 14.859-90.408 18.935-69.367 6.821-134.985-3.093-195.053-29.447-60.07-26.353-111.876-67.956-154.035-123.66-25.284-33.428-40.407-63.385-47.65-79.549z"/><path fill="url(#c)" d="m243.37 161.85-7.944-53.59-63.166 47.693-75.165 56.811c5.68 14.399 56.53 134.493 184.09 190.457 127.525 55.948 249.76 11.791 264.127 6.186l-9.097-93.779-7.681-78.773-44.814 30.444L457.683 0Z"/></g></svg>