<svg xmlns="http://www.w3.org/2000/svg" viewBox="0 0 512 512"><path d="M115.866 59.62c15.38 4.493 30.063 11.483 44.036 20.954 29.24 19.434 53.94 48.718 74.157 87.613v93.174c-8.94-1.06-17.411-1.51-25.58-3.125-21.868-4.104-36.199-16.627-43.02-37.041-4.044-12.365-5.474-25.021-5.474-37.916-.073-30.13-.081-60.261-.082-90.392-13.537-10.054-27.737-17.518-42.617-22.41-.02 39.825-.135 79.67.168 119.517.083 10.59 1.018 21.287 2.998 31.64 5.007 26.928 19.667 47.58 45.248 60.474 16.23 8.155 33.75 11.968 51.878 13.265 5.39.371 10.782.53 16.558.848-3.95.07-7.806.251-11.575.504 4.222-.082 8.542-.122 12.959-.118V422.56c-16.999 26.689-37.794 39.424-62.385 38.153-36.886-1.906-97.317-47.95-87.828-106.094 4.602-28.299 32.56-46.254 83.886-53.844-43.988-1.617-73.888-10.692-88.02-17.078-30.422-13.636-58.478-43.979-70.746-87.296-12.378-43.317-24.811-141.23 32.87-144.725 26.149-1.659 50.373 1.022 72.57 7.943ZM396.134 59.62c-15.38 4.493-30.063 11.483-44.036 20.954-29.24 19.434-53.94 48.718-74.157 87.613v93.174c8.94-1.06 17.411-1.51 25.58-3.125 21.868-4.104 36.199-16.627 43.02-37.041 4.044-12.365 5.474-25.021 5.474-37.916.073-30.13.081-60.261.082-90.392 13.537-10.054 27.737-17.518 42.617-22.41.02 39.825.135 79.67-.168 119.517-.083 10.59-1.018 21.287-2.998 31.64-5.007 26.928-19.667 47.58-45.248 60.474-16.23 8.155-33.75 11.968-51.878 13.265-5.39.371-10.782.53-16.558.848 3.95.07 7.806.251 11.575.504a640.929 640.929 0 0 0-12.959-.118V422.56c16.999 26.689 37.794 39.424 62.385 38.153 36.886-1.906 97.317-47.95 87.828-106.094-4.602-28.299-32.56-46.254-83.886-53.844 43.988-1.617 73.888-10.692 88.02-17.078 30.422-13.636 58.478-43.979 70.746-87.296 12.378-43.317 24.811-141.23-32.87-144.725-26.149-1.659-50.373 1.022-72.57 7.943z"/></svg>